#!OML:ASF X:\für Bonn\!DataBase\2005_08_10_Bjorn_Final\c3d\bjorn.ASF
:FULLY-SPECIFIED
:DEGREES
113
root 0.364779 15.8511 8.66757 -1971.68 -1.82641 169.726
lowerback 47.6903 1.2791 15.9691
upperback 24.4696 -5.37525 6.56413
thorax 8.58548 -5.89332 0.606937
lowerneck 2.324 -8.19295 0.580761
upperneck -3.87857 -10.6353 4.43805
head -1.37392 -5.36039 1.467
rclavicle 1.30403e-013 1.48691e-013
rhumerus 19.464 -28.3942 -77.1596
rradius 20.6875
rwrist 12.6884
rhand -13.5782 11.5059
rfingers 7.12502
rthumb 12.5358 -18.0981
lclavicle 1.30403e-013 1.48691e-013
lhumerus 14.7799 -43.7803 61.2106
lradius 37.8535
lwrist -8.64633
lhand -17.5506 -11.1566
lfingers 7.12502
lthumb 8.70403 738.644
rfemur -424.578 -14.0702 363.28
rtibia 76.8179
rfoot -15.8478 8.62448
rtoes -13.0353
lfemur -60.1469 4.37837 -24.2219
ltibia 75.5099
lfoot -17.9873 12.2595
ltoes -15.5607
114
root 0.349006 15.7238 8.67251 -1971.81 -1.55778 169.608
lowerback 47.8896 1.09266 16.3286
upperback 24.3595 -5.52281 6.8241
thorax 8.49478 -5.99883 0.792101
lowerneck 2.28321 -8.12802 0.980437
upperneck -3.77393 -10.5699 3.82092
head -1.3888 -5.32382 1.20947
rclavicle -6.99722e-014 2.48481e-014
rhumerus 20.2033 -29.4401 -77.1295
rradius 20.435
rwrist 13.026
rhand -13.4047 11.253
rfingers 7.12502
rthumb 12.703 -18.3406
lclavicle -6.99722e-014 2.48481e-014
lhumerus 14.3314 -44.6974 61.3134
lradius 38.2445
lwrist -8.45862
lhand -17.0582 -11.111
lfingers 7.12502
lthumb 9.17922 738.669
rfemur -425.471 -14.3041 363.187
rtibia 78.1077
rfoot -16.1059 9.04104
rtoes -13.2537
lfemur -60.8886 4.65156 -24.3942
ltibia 76.9009
lfoot -18.3897 12.2656
ltoes -15.6482
115
root 0.333678 15.5963 8.67653 -1971.96 -1.30128 169.505
lowerback 48.093 0.892679 16.6948
upperback 24.2203 -5.66028 7.07959
thorax 8.37029 -6.09743 0.972553
lowerneck 2.17059 -8.07336 1.40339
upperneck -3.55072 -10.5259 3.15821
head -1.35686 -5.29582 0.929309
rclavicle -2.8625e-014 -8.88567e-014
rhumerus 20.9576 -30.5711 -77.1621
rradius 20.1182
rwrist 13.4256
rhand -13.2332 11.0516
rfingers 7.12502
rthumb 12.8684 -18.5317
lclavicle -2.8625e-014 -8.88567e-014
lhumerus 13.8386 -45.644 61.4632
lradius 38.6621
lwrist -8.07339
lhand -16.5215 -10.8962
lfingers 7.12502
lthumb 9.69698 738.861
rfemur -426.333 -14.5145 363.1
rtibia 79.3776
rfoot -16.3583 9.43229
rtoes -13.4716
lfemur -61.6225 4.92357 -24.5405
ltibia 78.2791
lfoot -18.8037 12.2583
ltoes -15.66
116
root 0.318092 15.4686 8.68005 -1972.13 -1.06278 169.444
lowerback 48.2893 0.685456 17.1035
upperback 24.0957 -5.81056 7.34682
thorax 8.27346 -6.20322 1.1491
lowerneck 1.89887 -8.01015 1.84492
upperneck -3.24167 -10.4788 2.46218
head -1.27378 -5.26511 0.628385
rclavicle 1.17681e-013 -2.84262e-014
rhumerus 21.8184 -31.7688 -77.2833
rradius 19.7474
rwrist 13.8916
rhand -13.0885 10.9033
rfingers 7.12502
rthumb 13.0079 -18.6711
lclavicle 1.17681e-013 -2.84262e-014
lhumerus 13.4195 -46.6071 61.5492
lradius 39.132
lwrist -7.49218
lhand -16.0523 -10.5408
lfingers 7.12502
lthumb 10.1497 739.194
rfemur -427.161 -14.7211 363.053
rtibia 80.632
rfoot -16.6053 9.82698
rtoes -13.5852
lfemur -62.3201 5.20281 -24.6446
ltibia 79.6399
lfoot -19.1789 12.2719
ltoes -16.054
117
root 0.302641 15.3409 8.68322 -1972.28 -0.819083 169.369
lowerback 48.433 0.482106 17.5025
upperback 23.9801 -5.95432 7.57792
thorax 8.19102 -6.29662 1.28578
lowerneck 1.583 -7.9302 2.36305
upperneck -2.93195 -10.4068 1.76457
head -1.18849 -5.22346 0.315879
rclavicle 1.04958e-013 -1.33186e-014
rhumerus 22.6546 -33.0214 -77.5004
rradius 19.3891
rwrist 14.3413
rhand -13.0567 10.8003
rfingers 7.12502
rthumb 13.0385 -18.7722
lclavicle 1.04958e-013 -1.33186e-014
lhumerus 13.0017 -47.5987 61.5792
lradius 39.6428
lwrist -6.78921
lhand -15.6696 -10.1249
lfingers 7.12502
lthumb 10.5189 739.592
rfemur -428.007 -14.9152 362.993
rtibia 81.8793
rfoot -16.8739 10.1796
rtoes -13.9617
lfemur -63.0352 5.48065 -24.7586
ltibia 80.988
lfoot -19.5597 12.2863
ltoes -16.3864
118
root 0.288072 15.2139 8.68551 -1972.45 -0.584229 169.294
lowerback 48.5959 0.269695 17.889
upperback 23.8375 -6.092 7.80409
thorax 8.07295 -6.38923 1.42789
lowerneck 1.22956 -7.83004 2.88225
upperneck -2.57584 -10.3133 1.03102
head -1.08561 -5.17195 -0.00877174
rclavicle -1.55847e-013 -2.60408e-014
rhumerus 23.5309 -34.3964 -77.8195
rradius 18.9569
rwrist 14.8244
rhand -13.1282 10.7823
rfingers 7.12502
rthumb 12.9696 -18.7946
lclavicle -1.55847e-013 -2.60408e-014
lhumerus 12.4799 -48.5606 61.6965
lradius 40.1791
lwrist -6.07399
lhand -15.4406 -9.6243
lfingers 7.12502
lthumb 10.7398 740.081
rfemur -428.809 -15.0964 362.925
rtibia 83.1071
rfoot -17.1296 10.5255
rtoes -14.1777
lfemur -63.7111 5.75443 -24.8647
ltibia 82.3172
lfoot -19.9459 12.2747
ltoes -16.6914
119
root 0.273 15.0842 8.68703 -1972.63 -0.349382 169.22
lowerback 48.739 0.0527207 18.2845
upperback 23.6919 -6.22675 8.01962
thorax 7.9553 -6.47694 1.55425
lowerneck 0.829845 -7.71573 3.36847
upperneck -2.20569 -10.2036 0.319031
head -0.968602 -5.11396 -0.324135
rclavicle -1.90833e-014 1.63003e-014
rhumerus 24.4175 -35.8204 -78.189
rradius 18.5275
rwrist 15.2327
rhand -13.2281 10.8172
rfingers 7.12502
rthumb 12.8733 -18.7658
lclavicle -1.90833e-014 1.63003e-014
lhumerus 11.8501 -49.4785 61.9134
lradius 40.7516
lwrist -5.3484
lhand -15.4684 -9.17004
lfingers 7.12502
lthumb 10.713 740.537
rfemur -429.618 -15.2709 362.852
rtibia 84.3442
rfoot -17.4145 10.8258
rtoes -14.6065
lfemur -64.3854 6.03319 -24.9781
ltibia 83.6414
lfoot -20.2964 12.3261
ltoes -17.2539
120
root 0.25874 14.9548 8.68843 -1972.83 -0.119858 169.159
lowerback 48.9198 -0.186212 18.6868
upperback 23.491 -6.3326 8.22338
thorax 7.76567 -6.54801 1.67016
lowerneck 0.49359 -7.60607 3.85594
upperneck -1.80154 -10.0988 -0.396435
head -0.852471 -5.05998 -0.640361
rclavicle 3.81667e-014 2.78299e-015
rhumerus 25.1448 -37.144 -78.4655
rradius 18.1199
rwrist 15.5222
rhand -13.4008 10.8252
rfingers 7.12502
rthumb 12.7068 -18.7682
lclavicle 3.81667e-014 2.78299e-015
lhumerus 11.0957 -50.4346 62.2464
lradius 41.3076
lwrist -4.64732
lhand -15.7424 -8.72063
lfingers 7.12502
lthumb 10.4487 741
rfemur -430.395 -15.4143 362.783
rtibia 85.5604
rfoot -17.6984 11.1134
rtoes -15.0021
lfemur -65.0393 6.32072 -25.0654
ltibia 84.9542
lfoot -20.6496 12.3258
ltoes -17.7211
121
root 0.245392 14.824 8.6886 -1973.03 0.105997 169.082
lowerback 49.058 -0.406789 19.0736
upperback 23.3069 -6.43621 8.43159
thorax 7.60248 -6.61954 1.79235
lowerneck 0.124312 -7.50788 4.32359
upperneck -1.3818 -10.0113 -1.10124
head -0.724269 -5.01656 -0.954887
rclavicle -3.18055e-015 -6.95746e-014
rhumerus 25.8212 -38.3884 -78.6934
rradius 17.7507
rwrist 15.6583
rhand -13.5219 10.8703
rfingers 7.12502
rthumb 12.5901 -18.7303
lclavicle -3.18055e-015 -6.95746e-014
lhumerus 10.3429 -51.3458 62.5964
lradius 41.831
lwrist -4.13359
lhand -16.2924 -8.36424
lfingers 7.12502
lthumb 9.91809 741.382
rfemur -431.169 -15.5613 362.698
rtibia 86.7857
rfoot -17.9901 11.3698
rtoes -15.4679
lfemur -65.6775 6.58769 -25.1576
ltibia 86.2591
lfoot -21.0195 12.3396
ltoes -18.1003
122
root 0.232093 14.6933 8.68877 -1973.27 0.326578 169.007
lowerback 49.2091 -0.607581 19.4509
upperback 23.1037 -6.51108 8.67787
thorax 7.41968 -6.68695 1.95642
lowerneck -0.202945 -7.41858 4.73787
upperneck -0.953518 -9.93745 -1.83337
head -0.598349 -4.98274 -1.27154
rclavicle 7.31528e-014 -2.3059e-014
rhumerus 26.4036 -39.5843 -78.8029
rradius 17.4285
rwrist 15.6392
rhand -13.5641 10.9053
rfingers 7.12502
rthumb 12.5494 -18.6979
lclavicle 7.31528e-014 -2.3059e-014
lhumerus 9.49598 -52.2006 63.1242
lradius 42.3231
lwrist -3.81003
lhand -17.0727 -8.1032
lfingers 7.12502
lthumb 9.16515 741.678
rfemur -431.893 -15.6884 362.601
rtibia 87.9904
rfoot -18.2969 11.6142
rtoes -15.9874
lfemur -66.272 6.86385 -25.2433
ltibia 87.5498
lfoot -21.4035 12.3284
ltoes -18.5017
123
root 0.218741 14.5614 8.68798 -1973.52 0.54671 168.918
lowerback 49.3039 -0.766602 19.7795
upperback 22.9296 -6.59801 8.96394
thorax 7.28096 -6.77374 2.17838
lowerneck -0.434877 -7.32311 4.94458
upperneck -0.60299 -9.84993 -2.45781
head -0.49343 -4.94488 -1.51902
rclavicle -1.7175e-013 -4.65156e-014
rhumerus 26.9027 -40.579 -78.7713
rradius 17.2003
rwrist 15.3177
rhand -13.6054 10.7489
rfingers 7.12502
rthumb 12.5095 -18.8566
lclavicle -1.7175e-013 -4.65156e-014
lhumerus 8.6283 -52.9584 63.7372
lradius 42.7999
lwrist -3.51493
lhand -18.0756 -7.94094
lfingers 7.12502
lthumb 8.19735 741.88
rfemur -432.611 -15.8282 362.486
rtibia 89.2001
rfoot -18.577 11.8754
rtoes -16.3482
lfemur -66.8435 7.13743 -25.3457
ltibia 88.828
lfoot -21.7523 12.3636
ltoes -18.9775
124
root 0.205653 14.4295 8.68738 -1973.79 0.751393 168.813
lowerback 51.276 -13.3681 5.05315
upperback 25.2408 1.29593 4.05727
thorax 7.6575 5.5465 2.43246
lowerneck -0.595331 -7.25084 5.04723
upperneck -0.262096 -9.79043 -3.0522
head -0.396189 -4.92343 -1.73859
rclavicle 1.90833e-014 1.21656e-013
rhumerus 27.3729 -41.6467 -78.7038
rradius 16.9622
rwrist 15.0314
rhand -13.6104 10.4717
rfingers 7.12502
rthumb 12.5047 -19.1341
lclavicle 1.90833e-014 1.21656e-013
lhumerus 7.66649 -53.643 64.5065
lradius 43.2731
lwrist -3.23332
lhand -19.078 -7.85923
lfingers 7.12502
lthumb 7.22985 741.997
rfemur -433.287 -15.9787 362.353
rtibia 90.3924
rfoot -18.8969 12.1001
rtoes -16.9908
lfemur -67.377 7.37949 -25.4449
ltibia 90.0944
lfoot -22.1548 12.3376
ltoes -19.2569
